<svg xmlns="http://www.w3.org/2000/svg" class="graphdiagram" viewBox="-969.342608818342 -749.1801396425166 2360.055264803261 1352.4288325964785"><g class="layer relationships"><g class="related-pair"><g class="relationship" transform="translate(106.77653444916632,66.39884831284537) rotate(30.46012744551202)"><path class="relationship" d="M 37.991462989325086 1 L 212.52506877076223 1 L 212.52506877076223 4 L 220.52506877076223 0 L 212.52506877076223 -4 L 212.52506877076223 -1 L 37.991462989325086 -1 Z" fill="rgba(0, 0, 0, 0.3)" stroke="rgb(51, 51, 51)" stroke-width="0px"/><text class="type" text-anchor="middle" baseline-shift="30%" alignment-baseline="alphabetic" x="125.25826588004365" y="0" font-size="14px" font-family="&quot;Helvetica Neue&quot;, Helvetica, Arial, sans-serif">:HAS_MARITAL_STATUS</text></g></g><g class="related-pair"><g class="relationship" transform="translate(106.77653444916632,66.39884831284537) rotate(94.55835352085056)"><path class="relationship" d="M 37.991462989325086 1 L 209.53271712065646 1 L 209.53271712065646 4 L 217.53271712065646 0 L 209.53271712065646 -4 L 209.53271712065646 -1 L 37.991462989325086 -1 Z" fill="rgba(0, 0, 0, 0.3)" stroke="rgb(51, 51, 51)" stroke-width="0px"/><text class="type" text-anchor="middle" baseline-shift="30%" alignment-baseline="alphabetic" x="-123.76209005499076" y="0" font-size="14px" font-family="&quot;Helvetica Neue&quot;, Helvetica, Arial, sans-serif" transform="rotate(180)">:HAS_OCCUPATION</text></g></g><g class="related-pair"><g class="relationship" transform="translate(106.77653444916632,66.39884831284537) rotate(56.98011001795442)"><path class="relationship" d="M 37.991462989325086 1 L 225.5413169688632 1 L 225.5413169688632 4 L 233.5413169688632 0 L 225.5413169688632 -4 L 225.5413169688632 -1 L 37.991462989325086 -1 Z" fill="rgba(0, 0, 0, 0.3)" stroke="rgb(51, 51, 51)" stroke-width="0px"/><text class="type" text-anchor="middle" baseline-shift="30%" alignment-baseline="alphabetic" x="131.76638997909413" y="0" font-size="14px" font-family="&quot;Helvetica Neue&quot;, Helvetica, Arial, sans-serif">:HAS_GENDER</text></g></g><g class="related-pair"><g class="relationship" transform="translate(106.77653444916632,66.39884831284537) rotate(8.243230205079564)"><path class="relationship" d="M 37.991462989325086 1 L 226.98060374215325 1 L 226.98060374215325 4 L 234.98060374215325 0 L 226.98060374215325 -4 L 226.98060374215325 -1 L 37.991462989325086 -1 Z" fill="rgba(0, 0, 0, 0.3)" stroke="rgb(51, 51, 51)" stroke-width="0px"/><text class="type" text-anchor="middle" baseline-shift="30%" alignment-baseline="alphabetic" x="132.48603336573916" y="0" font-size="14px" font-family="&quot;Helvetica Neue&quot;, Helvetica, Arial, sans-serif">:WAS_BORN_ON</text></g></g><g class="related-pair"><g class="relationship" transform="translate(-86.9486967973161,-313.14102018586925) rotate(124.73920274587277)"><path class="relationship" d="M 33.016409933830275 1 L 204.48841171871874 1 L 204.48841171871874 4 L 212.48841171871874 0 L 204.48841171871874 -4 L 204.48841171871874 -1 L 33.016409933830275 -1 Z" fill="rgba(0, 0, 0, 0.3)" stroke="rgb(51, 51, 51)" stroke-width="0px"/><text class="type" text-anchor="middle" baseline-shift="30%" alignment-baseline="alphabetic" transform="rotate(180)" x="-118.7524108262745" y="0" font-size="14px" font-family="&quot;Helvetica Neue&quot;, Helvetica, Arial, sans-serif">:HAS_BACENTA</text></g></g><g class="related-pair"><g class="relationship" transform="translate(106.77653444916632,-397.90744212466143) rotate(156.3677344584942)"><path class="relationship" d="M 47.73015710354871 1 L 170.44236030237545 1 L 170.44236030237545 4 L 178.44236030237545 0 L 170.44236030237545 -4 L 170.44236030237545 -1 L 47.73015710354871 -1 Z" fill="rgba(0, 0, 0, 0.3)" stroke="rgb(51, 51, 51)" stroke-width="0px"/><text class="type" text-anchor="middle" baseline-shift="30%" alignment-baseline="alphabetic" transform="rotate(180)" x="-109.08625870296208" y="0" font-size="14px" font-family="&quot;Helvetica Neue&quot;, Helvetica, Arial, sans-serif">:HAS_CENTRE</text></g></g><g class="related-pair"><g class="relationship" transform="translate(397.6228371472047,-428.58416237706535) rotate(173.979046851526)"><path class="relationship" d="M 28.883864850559835 1 L 236.72946909904903 1 L 236.72946909904903 4 L 244.72946909904903 0 L 236.72946909904903 -4 L 236.72946909904903 -1 L 28.883864850559835 -1 Z" fill="rgba(0, 0, 0, 0.3)" stroke="rgb(51, 51, 51)" stroke-width="0px"/><text class="type" text-anchor="middle" baseline-shift="30%" alignment-baseline="alphabetic" transform="rotate(180)" x="-132.80666697480444" y="0" font-size="14px" font-family="&quot;Helvetica Neue&quot;, Helvetica, Arial, sans-serif">:HAS_COMMUNITY</text></g></g><g class="related-pair"><g class="relationship" transform="translate(397.6228371472047,-428.58416237706535) rotate(65.02094257214293)"><path class="relationship" d="M 28.883864850559835 1 L 163.07520963475713 1 L 163.07520963475713 4 L 171.07520963475713 0 L 163.07520963475713 -4 L 163.07520963475713 -1 L 28.883864850559835 -1 Z" fill="rgba(0, 0, 0, 0.3)" stroke="rgb(51, 51, 51)" stroke-width="0px"/><text class="type" text-anchor="middle" baseline-shift="30%" alignment-baseline="alphabetic" x="95.97953724265848" y="0" font-size="14px" font-family="&quot;Helvetica Neue&quot;, Helvetica, Arial, sans-serif">:HAS_SONTA</text></g></g><g class="related-pair"><g class="relationship" transform="translate(106.77653444916632,66.39884831284537) rotate(-152.67333921568752)"><path class="relationship" d="M 37.991462989325086 1 L 332.7802829163127 1 L 332.7802829163127 4 L 340.7802829163127 0 L 332.7802829163127 -4 L 332.7802829163127 -1 L 37.991462989325086 -1 Z" fill="rgba(0, 0, 0, 0.3)" stroke="rgb(51, 51, 51)" stroke-width="0px"/><text class="type" text-anchor="middle" baseline-shift="30%" alignment-baseline="alphabetic" x="-185.3858729528189" y="0" font-size="14px" font-family="&quot;Helvetica Neue&quot;, Helvetica, Arial, sans-serif" transform="rotate(180)">:BELONGS_TO</text></g></g><g class="related-pair"><g class="relationship" transform="translate(482.82813457931536,-245.6863032846603) rotate(107.26042637928)"><path class="relationship" d="M 30.695872463445657 1 L 122.9841524265442 1 L 122.9841524265442 4 L 130.9841524265442 0 L 122.9841524265442 -4 L 122.9841524265442 -1 L 30.695872463445657 -1 Z" fill="rgba(0, 0, 0, 0.3)" stroke="rgb(51, 51, 51)" stroke-width="0px"/></g></g><g class="related-pair"><g class="relationship" transform="translate(106.77653444916632,66.39884831284537) rotate(-24.834228475175244)"><path class="relationship" d="M 37.991462989325086 1 L 313.3111483238631 1 L 313.3111483238631 4 L 321.3111483238631 0 L 313.3111483238631 -4 L 313.3111483238631 -1 L 37.991462989325086 -1 Z" fill="rgba(0, 0, 0, 0.3)" stroke="rgb(51, 51, 51)" stroke-width="0px"/><text class="type" text-anchor="middle" baseline-shift="30%" alignment-baseline="alphabetic" x="175.6513056565941" y="0" font-size="14px" font-family="&quot;Helvetica Neue&quot;, Helvetica, Arial, sans-serif">:BELONGS_TO</text></g></g><g class="related-pair"><g class="relationship" transform="translate(-86.9486967973161,-313.14102018586925) rotate(23.75251540817254)"><path class="relationship" d="M 33.016409933830275 1 L 521.9169059999854 1 L 521.9169059999854 4 L 529.9169059999854 0 L 521.9169059999854 -4 L 521.9169059999854 -1 L 33.016409933830275 -1 Z" fill="rgba(0, 0, 0, 0.3)" stroke="rgb(51, 51, 51)" stroke-width="0px"/><text class="type" text-anchor="middle" baseline-shift="30%" alignment-baseline="alphabetic" x="277.4666579669078" y="0" font-size="14px" font-family="&quot;Helvetica Neue&quot;, Helvetica, Arial, sans-serif">:HAS_BASONTA</text></g></g><g class="related-pair"><g class="relationship" transform="translate(106.77653444916632,66.39884831284537) rotate(-90)"><path class="relationship" d="M 37.991462989325086 1 L 132.06359405111618 1 L 132.06359405111618 4 L 140.06359405111618 0 L 132.06359405111618 -4 L 132.06359405111618 -1 L 37.991462989325086 -1 Z" fill="rgba(0, 0, 0, 0.3)" stroke="rgb(51, 51, 51)" stroke-width="0px"/><text class="type" text-anchor="middle" baseline-shift="30%" alignment-baseline="alphabetic" x="85.02752852022064" y="0" font-size="14px" font-family="&quot;Helvetica Neue&quot;, Helvetica, Arial, sans-serif">:IS_A</text></g></g><g class="related-pair"><g class="relationship" transform="translate(106.77653444916632,-107.41918534498966) rotate(180)"><path class="relationship" d="M 33.75443960671882 1 L 290.5258506092822 1 L 290.5258506092822 4 L 298.5258506092822 0 L 290.5258506092822 -4 L 290.5258506092822 -1 L 33.75443960671882 -1 Z" fill="rgba(0, 0, 0, 0.3)" stroke="rgb(51, 51, 51)" stroke-width="0px"/><text class="type" text-anchor="middle" baseline-shift="30%" alignment-baseline="alphabetic" transform="rotate(180)" x="-162.1401451080005" y="0" font-size="14px" font-family="&quot;Helvetica Neue&quot;, Helvetica, Arial, sans-serif">:LEADS</text></g></g><g class="related-pair"><g class="relationship" transform="translate(106.77653444916632,-107.41918534498966) rotate(-133.27975152682413)"><path class="relationship" d="M 33.75443960671882 1 L 241.56267377867886 1 L 241.56267377867886 4 L 249.56267377867886 0 L 241.56267377867886 -4 L 241.56267377867886 -1 L 33.75443960671882 -1 Z" fill="rgba(0, 0, 0, 0.3)" stroke="rgb(51, 51, 51)" stroke-width="0px"/><text class="type" text-anchor="middle" baseline-shift="30%" alignment-baseline="alphabetic" transform="rotate(180)" x="-137.65855669269882" y="0" font-size="14px" font-family="&quot;Helvetica Neue&quot;, Helvetica, Arial, sans-serif">:LEADS</text></g></g><g class="related-pair"><g class="relationship" transform="translate(106.77653444916632,-107.41918534498966) rotate(-90)"><path class="relationship" d="M 33.75443960671882 1 L 234.75809967612304 1 L 234.75809967612304 4 L 242.75809967612304 0 L 234.75809967612304 -4 L 234.75809967612304 -1 L 33.75443960671882 -1 Z" fill="rgba(0, 0, 0, 0.3)" stroke="rgb(51, 51, 51)" stroke-width="0px"/><text class="type" text-anchor="middle" baseline-shift="30%" alignment-baseline="alphabetic" x="134.25626964142094" y="0" font-size="14px" font-family="&quot;Helvetica Neue&quot;, Helvetica, Arial, sans-serif">:LEADS</text></g></g><g class="related-pair"><g class="relationship" transform="translate(106.77653444916632,-107.41918534498966) rotate(-47.836080254889026)"><path class="relationship" d="M 33.75443960671882 1 L 396.40416206125394 1 L 396.40416206125394 4 L 404.40416206125394 0 L 396.40416206125394 -4 L 396.40416206125394 -1 L 33.75443960671882 -1 Z" fill="rgba(0, 0, 0, 0.3)" stroke="rgb(51, 51, 51)" stroke-width="0px"/><text class="type" text-anchor="middle" baseline-shift="30%" alignment-baseline="alphabetic" x="215.07930083398637" y="0" font-size="14px" font-family="&quot;Helvetica Neue&quot;, Helvetica, Arial, sans-serif">:LEADS</text></g></g><g class="related-pair"><g class="relationship" transform="translate(106.77653444916632,-107.41918534498966) rotate(4.030929898914573)"><path class="relationship" d="M 33.75443960671882 1 L 280.9060923829569 1 L 280.9060923829569 4 L 288.9060923829569 0 L 280.9060923829569 -4 L 280.9060923829569 -1 L 33.75443960671882 -1 Z" fill="rgba(0, 0, 0, 0.3)" stroke="rgb(51, 51, 51)" stroke-width="0px"/><text class="type" text-anchor="middle" baseline-shift="30%" alignment-baseline="alphabetic" x="157.33026599483787" y="0" font-size="14px" font-family="&quot;Helvetica Neue&quot;, Helvetica, Arial, sans-serif">:LEADS</text></g></g><g class="related-pair"><g class="relationship" transform="translate(106.77653444916632,-107.41918534498966) rotate(-20.187528141844698)"><path class="relationship" d="M 33.75443960671882 1 L 361.9693267537915 1 L 361.9693267537915 4 L 369.9693267537915 0 L 361.9693267537915 -4 L 361.9693267537915 -1 L 33.75443960671882 -1 Z" fill="rgba(0, 0, 0, 0.3)" stroke="rgb(51, 51, 51)" stroke-width="0px"/><text class="type" text-anchor="middle" baseline-shift="30%" alignment-baseline="alphabetic" x="197.86188318025515" y="0" font-size="14px" font-family="&quot;Helvetica Neue&quot;, Helvetica, Arial, sans-serif">:LEADS</text></g></g><g class="related-pair"><g class="relationship" transform="translate(106.77653444916632,66.39884831284537) rotate(177.31680292842532)"><path class="relationship" d="M 37.991462989325086 1 L 231.03513856170383 1 L 231.03513856170383 4 L 239.03513856170383 0 L 231.03513856170383 -4 L 231.03513856170383 -1 L 37.991462989325086 -1 Z" fill="rgba(0, 0, 0, 0.3)" stroke="rgb(51, 51, 51)" stroke-width="0px"/><text class="type" text-anchor="middle" baseline-shift="30%" alignment-baseline="alphabetic" transform="rotate(180)" x="-134.51330077551444" y="0" font-size="14px" font-family="&quot;Helvetica Neue&quot;, Helvetica, Arial, sans-serif">:HAS_TITLE</text></g></g></g><g class="layer nodes"><circle class="node node-id-0" r="32.491462989325086" fill="rgb(247, 247, 249)" stroke="rgba(0, 0, 0, 0.3)" stroke-width="1px" cx="106.77653444916632" cy="66.39884831284537"/><circle class="node node-id-1" r="47.44417623326485" fill="rgb(247, 247, 249)" stroke="rgba(0, 0, 0, 0.3)" stroke-width="1px" cx="342.5021426147435" cy="205.0309716394445"/><circle class="node node-id-2" r="42.47756851721003" fill="rgb(247, 247, 249)" stroke="rgba(0, 0, 0, 0.3)" stroke-width="1px" cx="85.67527008242944" cy="331.06930080353527"/><circle class="node node-id-3" r="29.73779473589275" fill="rgb(247, 247, 249)" stroke="rgba(0, 0, 0, 0.3)" stroke-width="1px" cx="253.2423742398863" cy="291.76514717582273"/><circle class="node node-id-4" r="41.701172796079874" fill="rgb(247, 247, 249)" stroke="rgba(0, 0, 0, 0.3)" stroke-width="1px" cx="386.0429032091229" cy="106.85685481219338"/><circle class="node node-id-5" r="32.35627811661949" fill="rgb(247, 247, 249)" stroke="rgba(0, 0, 0, 0.3)" stroke-width="1px" cx="-229.6055942767354" cy="-107.41918534498966"/><circle class="node node-id-7" r="27.516409933830275" fill="rgb(247, 247, 249)" stroke="rgba(0, 0, 0, 0.3)" stroke-width="1px" cx="-86.9486967973161" cy="-313.14102018586925"/><circle class="node node-id-8" r="42.23015710354871" fill="rgb(247, 247, 249)" stroke="rgba(0, 0, 0, 0.3)" stroke-width="1px" cx="106.77653444916632" cy="-397.90744212466143"/><circle class="node node-id-9" r="23.383864850559835" fill="rgb(247, 247, 249)" stroke="rgba(0, 0, 0, 0.3)" stroke-width="1px" cx="397.6228371472047" cy="-428.58416237706535"/><circle class="node node-id-10" r="25.195872463445657" fill="rgb(247, 247, 249)" stroke="rgba(0, 0, 0, 0.3)" stroke-width="1px" cx="482.82813457931536" cy="-245.6863032846603"/><circle class="node node-id-11" r="32.3562854822984" fill="rgb(247, 247, 249)" stroke="rgba(0, 0, 0, 0.3)" stroke-width="1px" cx="432.7305833500266" cy="-84.44943146534439"/><g class="caption"><text class="caption node" text-anchor="middle" alignment-baseline="central" x="106.77653444916632" y="66.39884831284537" fill="rgb(51, 51, 51)" font-size="14px" font-family="&quot;Helvetica Neue&quot;, Helvetica, Arial, sans-serif">Member</text></g><g class="caption"><text class="caption node" text-anchor="middle" alignment-baseline="central" x="342.5021426147435" y="205.0309716394445" fill="rgb(51, 51, 51)" font-size="14px" font-family="&quot;Helvetica Neue&quot;, Helvetica, Arial, sans-serif">MaritalStatus</text></g><g class="caption"><text class="caption node" text-anchor="middle" alignment-baseline="central" x="85.67527008242944" y="331.06930080353527" fill="rgb(51, 51, 51)" font-size="14px" font-family="&quot;Helvetica Neue&quot;, Helvetica, Arial, sans-serif">Occupation</text></g><g class="caption"><text class="caption node" text-anchor="middle" alignment-baseline="central" x="253.2423742398863" y="291.76514717582273" fill="rgb(51, 51, 51)" font-size="14px" font-family="&quot;Helvetica Neue&quot;, Helvetica, Arial, sans-serif">Gender</text></g><g class="caption"><text class="caption node" text-anchor="middle" alignment-baseline="central" x="386.0429032091229" y="106.85685481219338" fill="rgb(51, 51, 51)" font-size="14px" font-family="&quot;Helvetica Neue&quot;, Helvetica, Arial, sans-serif">DateofBirth</text></g><g class="caption"><text class="caption node" text-anchor="middle" alignment-baseline="central" x="-229.6055942767354" y="-107.41918534498966" fill="rgb(51, 51, 51)" font-size="14px" font-family="&quot;Helvetica Neue&quot;, Helvetica, Arial, sans-serif">Bacenta</text></g><g class="caption"><text class="caption node" text-anchor="middle" alignment-baseline="central" x="-86.9486967973161" y="-313.14102018586925" fill="rgb(51, 51, 51)" font-size="14px" font-family="&quot;Helvetica Neue&quot;, Helvetica, Arial, sans-serif">Centre</text></g><g class="caption"><text class="caption node" text-anchor="middle" alignment-baseline="central" x="106.77653444916632" y="-397.90744212466143" fill="rgb(51, 51, 51)" font-size="14px" font-family="&quot;Helvetica Neue&quot;, Helvetica, Arial, sans-serif">Community</text></g><g class="caption"><text class="caption node" text-anchor="middle" alignment-baseline="central" x="397.6228371472047" y="-428.58416237706535" fill="rgb(51, 51, 51)" font-size="14px" font-family="&quot;Helvetica Neue&quot;, Helvetica, Arial, sans-serif">Town</text></g><g class="caption"><text class="caption node" text-anchor="middle" alignment-baseline="central" x="482.82813457931536" y="-245.6863032846603" fill="rgb(51, 51, 51)" font-size="14px" font-family="&quot;Helvetica Neue&quot;, Helvetica, Arial, sans-serif">Sonta</text></g><g class="caption"><text class="caption node" text-anchor="middle" alignment-baseline="central" x="432.7305833500266" y="-84.44943146534439" fill="rgb(51, 51, 51)" font-size="14px" font-family="&quot;Helvetica Neue&quot;, Helvetica, Arial, sans-serif">Basonta</text></g><circle class="node node-id-11" r="28.25443960671882" fill="rgb(247, 247, 249)" stroke="rgba(0, 0, 0, 0.3)" stroke-width="1px" cx="106.77653444916632" cy="-107.41918534498966"/><g class="caption"><text class="caption node" text-anchor="middle" alignment-baseline="central" x="106.77653444916632" y="-107.41918534498966" fill="rgb(51, 51, 51)" font-size="14px" font-family="&quot;Helvetica Neue&quot;, Helvetica, Arial, sans-serif">Leader</text></g><circle class="node node-id-13" r="20.344103371845502" fill="rgb(247, 247, 249)" stroke="rgba(0, 0, 0, 0.3)" stroke-width="1px" cx="-157.81230626591818" cy="78.79877477792593"/><g class="caption"><text class="caption node" text-anchor="middle" alignment-baseline="central" x="-157.81230626591818" y="78.79877477792593" fill="rgb(51, 51, 51)" font-size="14px" font-family="&quot;Helvetica Neue&quot;, Helvetica, Arial, sans-serif">Title</text></g></g><g class="layer properties"><g class="speech-bubble node-speech-bubble" transform="translate(83.80160063874281,89.37378212326888) "><path class="speech-bubble-outline" transform="scale(-1,1) " d="M 0 0 L 16 12 L 174.17181396484375 12 A 4 4 0 0 1 178.17181396484375 16 L 178.17181396484375 100 A 4 4 0 0 1 174.17181396484375 104 L 16 104 A 4 4 0 0 1 12 100 L 12 16 Z" fill="rgb(255, 255, 255)" stroke="rgba(0, 0, 0, 0.5)" stroke-width="1px"/><text class="speech-bubble-content property-key" x="-53.07194519042969" y="23" alignment-baseline="central" text-anchor="end" font-size="14px" font-family="&quot;Helvetica Neue&quot;, Helvetica, Arial, sans-serif" xml:space="preserve">memberID: </text><text class="speech-bubble-content property-key" x="-53.07194519042969" y="37" alignment-baseline="central" text-anchor="end" font-size="14px" font-family="&quot;Helvetica Neue&quot;, Helvetica, Arial, sans-serif" xml:space="preserve">firstName: </text><text class="speech-bubble-content property-key" x="-53.07194519042969" y="51" alignment-baseline="central" text-anchor="end" font-size="14px" font-family="&quot;Helvetica Neue&quot;, Helvetica, Arial, sans-serif" xml:space="preserve">lastName: </text><text class="speech-bubble-content property-key" x="-53.07194519042969" y="65" alignment-baseline="central" text-anchor="end" font-size="14px" font-family="&quot;Helvetica Neue&quot;, Helvetica, Arial, sans-serif" xml:space="preserve">email: </text><text class="speech-bubble-content property-key" x="-53.07194519042969" y="79" alignment-baseline="central" text-anchor="end" font-size="14px" font-family="&quot;Helvetica Neue&quot;, Helvetica, Arial, sans-serif" xml:space="preserve">phoneNumber: </text><text class="speech-bubble-content property-key" x="-53.07194519042969" y="93" alignment-baseline="central" text-anchor="end" font-size="14px" font-family="&quot;Helvetica Neue&quot;, Helvetica, Arial, sans-serif" xml:space="preserve">whatsAppNumber: </text><text class="speech-bubble-content property-value" x="-53.07194519042969" y="23" alignment-baseline="central" font-size="14px" font-family="&quot;Helvetica Neue&quot;, Helvetica, Arial, sans-serif">ID</text><text class="speech-bubble-content property-value" x="-53.07194519042969" y="37" alignment-baseline="central" font-size="14px" font-family="&quot;Helvetica Neue&quot;, Helvetica, Arial, sans-serif">String</text><text class="speech-bubble-content property-value" x="-53.07194519042969" y="51" alignment-baseline="central" font-size="14px" font-family="&quot;Helvetica Neue&quot;, Helvetica, Arial, sans-serif">String</text><text class="speech-bubble-content property-value" x="-53.07194519042969" y="65" alignment-baseline="central" font-size="14px" font-family="&quot;Helvetica Neue&quot;, Helvetica, Arial, sans-serif">String</text><text class="speech-bubble-content property-value" x="-53.07194519042969" y="79" alignment-baseline="central" font-size="14px" font-family="&quot;Helvetica Neue&quot;, Helvetica, Arial, sans-serif">String</text><text class="speech-bubble-content property-value" x="-53.07194519042969" y="93" alignment-baseline="central" font-size="14px" font-family="&quot;Helvetica Neue&quot;, Helvetica, Arial, sans-serif">String</text></g><g class="speech-bubble node-speech-bubble" transform="translate(376.0502413570947,238.5790703817957) "><path class="speech-bubble-outline" transform="scale(1,1) " d="M 0 0 L 16 12 L 143.31581115722656 12 A 4 4 0 0 1 147.31581115722656 16 L 147.31581115722656 30 A 4 4 0 0 1 143.31581115722656 34 L 16 34 A 4 4 0 0 1 12 30 L 12 16 Z" fill="rgb(255, 255, 255)" stroke="rgba(0, 0, 0, 0.5)" stroke-width="1px"/><text class="speech-bubble-content property-key" x="106.24386596679688" y="23" alignment-baseline="central" text-anchor="end" font-size="14px" font-family="&quot;Helvetica Neue&quot;, Helvetica, Arial, sans-serif" xml:space="preserve">maritalStatus: </text><text class="speech-bubble-content property-value" x="106.24386596679688" y="23" alignment-baseline="central" font-size="14px" font-family="&quot;Helvetica Neue&quot;, Helvetica, Arial, sans-serif">String</text></g><g class="speech-bubble node-speech-bubble" transform="translate(274.27017055516967,312.7929434911061) "><path class="speech-bubble-outline" transform="scale(1,1) " d="M 0 0 L 16 12 L 104.67588806152344 12 A 4 4 0 0 1 108.67588806152344 16 L 108.67588806152344 30 A 4 4 0 0 1 104.67588806152344 34 L 16 34 A 4 4 0 0 1 12 30 L 12 16 Z" fill="rgb(255, 255, 255)" stroke="rgba(0, 0, 0, 0.5)" stroke-width="1px"/><text class="speech-bubble-content property-key" x="67.60394287109375" y="23" alignment-baseline="central" text-anchor="end" font-size="14px" font-family="&quot;Helvetica Neue&quot;, Helvetica, Arial, sans-serif" xml:space="preserve">gender: </text><text class="speech-bubble-content property-value" x="67.60394287109375" y="23" alignment-baseline="central" font-size="14px" font-family="&quot;Helvetica Neue&quot;, Helvetica, Arial, sans-serif">String</text></g><g class="speech-bubble node-speech-bubble" transform="translate(86.79762860462967,-87.44027950045302) "><path class="speech-bubble-outline" transform="scale(-1,1) " d="M 0 0 L 16 12 L 218.00570678710938 12 A 4 4 0 0 1 222.00570678710938 16 L 222.00570678710938 58 A 4 4 0 0 1 218.00570678710938 62 L 16 62 A 4 4 0 0 1 12 58 L 12 16 Z" fill="rgb(255, 255, 255)" stroke="rgba(0, 0, 0, 0.5)" stroke-width="1px"/><text class="speech-bubble-content property-key" x="-85.49591064453125" y="23" alignment-baseline="central" text-anchor="end" font-size="14px" font-family="&quot;Helvetica Neue&quot;, Helvetica, Arial, sans-serif" xml:space="preserve">role: </text><text class="speech-bubble-content property-value" x="-85.49591064453125" y="23" alignment-baseline="central" font-size="14px" font-family="&quot;Helvetica Neue&quot;, Helvetica, Arial, sans-serif">String</text><text class="speech-bubble-content property-key" x="-85.49591064453125" y="37" alignment-baseline="central" text-anchor="end" font-size="14px" font-family="&quot;Helvetica Neue&quot;, Helvetica, Arial, sans-serif" xml:space="preserve">roleStartDate: </text><text class="speech-bubble-content property-key" x="-85.49591064453125" y="51" alignment-baseline="central" text-anchor="end" font-size="14px" font-family="&quot;Helvetica Neue&quot;, Helvetica, Arial, sans-serif" xml:space="preserve">roleTerminationDate: </text><text class="speech-bubble-content property-value" x="-85.49591064453125" y="37" alignment-baseline="central" font-size="14px" font-family="&quot;Helvetica Neue&quot;, Helvetica, Arial, sans-serif">TimeGraph</text><text class="speech-bubble-content property-value" x="-85.49591064453125" y="51" alignment-baseline="central" font-size="14px" font-family="&quot;Helvetica Neue&quot;, Helvetica, Arial, sans-serif">TimeGraph</text></g><g class="speech-bubble relationship-speech-bubble" transform="translate(12.403181057301083,-207.63669080332312) "><path class="speech-bubble-outline" transform="scale(-1,1) " d="M 0 0 L 16 12 L 192.86175537109375 12 A 4 4 0 0 1 196.86175537109375 16 L 196.86175537109375 58 A 4 4 0 0 1 192.86175537109375 62 L 16 62 A 4 4 0 0 1 12 58 L 12 16 Z" fill="rgb(255, 255, 255)" stroke="rgba(0, 0, 0, 0.5)" stroke-width="1px"/><text class="speech-bubble-content property-key" x="-85.49591064453125" y="23" alignment-baseline="central" text-anchor="end" font-size="14px" font-family="&quot;Helvetica Neue&quot;, Helvetica, Arial, sans-serif" xml:space="preserve">startDate: </text><text class="speech-bubble-content property-key" x="-85.49591064453125" y="37" alignment-baseline="central" text-anchor="end" font-size="14px" font-family="&quot;Helvetica Neue&quot;, Helvetica, Arial, sans-serif" xml:space="preserve">terminationDate: </text><text class="speech-bubble-content property-key" x="-85.49591064453125" y="51" alignment-baseline="central" text-anchor="end" font-size="14px" font-family="&quot;Helvetica Neue&quot;, Helvetica, Arial, sans-serif" xml:space="preserve">transferDate: </text><text class="speech-bubble-content property-value" x="-85.49591064453125" y="23" alignment-baseline="central" font-size="14px" font-family="&quot;Helvetica Neue&quot;, Helvetica, Arial, sans-serif">TimeGraph</text><text class="speech-bubble-content property-value" x="-85.49591064453125" y="37" alignment-baseline="central" font-size="14px" font-family="&quot;Helvetica Neue&quot;, Helvetica, Arial, sans-serif">TimeGraph</text><text class="speech-bubble-content property-value" x="-85.49591064453125" y="51" alignment-baseline="central" font-size="14px" font-family="&quot;Helvetica Neue&quot;, Helvetica, Arial, sans-serif">TimeGraph</text></g></g><g class="layer overlay"><circle class="node overlay" r="32.991462989325086" stroke="none" fill="rgba(255, 255, 255, 0)" cx="106.77653444916632" cy="66.39884831284537"/><circle class="node overlay" r="47.94417623326485" stroke="none" fill="rgba(255, 255, 255, 0)" cx="342.5021426147435" cy="205.0309716394445"/><circle class="node overlay" r="42.97756851721003" stroke="none" fill="rgba(255, 255, 255, 0)" cx="85.67527008242944" cy="331.06930080353527"/><circle class="node overlay" r="30.23779473589275" stroke="none" fill="rgba(255, 255, 255, 0)" cx="253.2423742398863" cy="291.76514717582273"/><circle class="node overlay" r="42.201172796079874" stroke="none" fill="rgba(255, 255, 255, 0)" cx="386.0429032091229" cy="106.85685481219338"/><circle class="node overlay" r="32.85627811661949" stroke="none" fill="rgba(255, 255, 255, 0)" cx="-229.6055942767354" cy="-107.41918534498966"/><circle class="node overlay" r="28.016409933830275" stroke="none" fill="rgba(255, 255, 255, 0)" cx="-86.9486967973161" cy="-313.14102018586925"/><circle class="node overlay" r="42.73015710354871" stroke="none" fill="rgba(255, 255, 255, 0)" cx="106.77653444916632" cy="-397.90744212466143"/><circle class="node overlay" r="23.883864850559835" stroke="none" fill="rgba(255, 255, 255, 0)" cx="397.6228371472047" cy="-428.58416237706535"/><circle class="node overlay" r="25.695872463445657" stroke="none" fill="rgba(255, 255, 255, 0)" cx="482.82813457931536" cy="-245.6863032846603"/><circle class="node overlay" r="32.8562854822984" stroke="none" fill="rgba(255, 255, 255, 0)" cx="432.7305833500266" cy="-84.44943146534439"/><circle class="node ring" r="37.991462989325086" fill="none" stroke="rgba(255, 255, 255, 0)" stroke-width="10px" cx="106.77653444916632" cy="66.39884831284537"/><circle class="node ring" r="52.94417623326485" fill="none" stroke="rgba(255, 255, 255, 0)" stroke-width="10px" cx="342.5021426147435" cy="205.0309716394445"/><circle class="node ring" r="47.97756851721003" fill="none" stroke="rgba(255, 255, 255, 0)" stroke-width="10px" cx="85.67527008242944" cy="331.06930080353527"/><circle class="node ring" r="35.23779473589275" fill="none" stroke="rgba(255, 255, 255, 0)" stroke-width="10px" cx="253.2423742398863" cy="291.76514717582273"/><circle class="node ring" r="47.201172796079874" fill="none" stroke="rgba(255, 255, 255, 0)" stroke-width="10px" cx="386.0429032091229" cy="106.85685481219338"/><circle class="node ring" r="37.85627811661949" fill="none" stroke="rgba(255, 255, 255, 0)" stroke-width="10px" cx="-229.6055942767354" cy="-107.41918534498966"/><circle class="node ring" r="33.016409933830275" fill="none" stroke="rgba(255, 255, 255, 0)" stroke-width="10px" cx="-86.9486967973161" cy="-313.14102018586925"/><circle class="node ring" r="47.73015710354871" fill="none" stroke="rgba(255, 255, 255, 0)" stroke-width="10px" cx="106.77653444916632" cy="-397.90744212466143"/><circle class="node ring" r="28.883864850559835" fill="none" stroke="rgba(255, 255, 255, 0)" stroke-width="10px" cx="397.6228371472047" cy="-428.58416237706535"/><circle class="node ring" r="30.695872463445657" fill="none" stroke="rgba(255, 255, 255, 0)" stroke-width="10px" cx="482.82813457931536" cy="-245.6863032846603"/><circle class="node ring" r="37.8562854822984" fill="none" stroke="rgba(255, 255, 255, 0)" stroke-width="10px" cx="432.7305833500266" cy="-84.44943146534439"/><path class="relationship overlay" fill="rgba(255, 255, 255, 0)" stroke="rgba(255, 255, 255, 0)" stroke-width="10px" transform="translate(106.77653444916632,66.39884831284537) rotate(30.46012744551202)" d="M 37.991462989325086 1 L 212.52506877076223 1 L 212.52506877076223 4 L 220.52506877076223 0 L 212.52506877076223 -4 L 212.52506877076223 -1 L 37.991462989325086 -1 Z"/><path class="relationship overlay" fill="rgba(255, 255, 255, 0)" stroke="rgba(255, 255, 255, 0)" stroke-width="10px" transform="translate(106.77653444916632,66.39884831284537) rotate(94.55835352085056)" d="M 37.991462989325086 1 L 209.53271712065646 1 L 209.53271712065646 4 L 217.53271712065646 0 L 209.53271712065646 -4 L 209.53271712065646 -1 L 37.991462989325086 -1 Z"/><path class="relationship overlay" fill="rgba(255, 255, 255, 0)" stroke="rgba(255, 255, 255, 0)" stroke-width="10px" transform="translate(106.77653444916632,66.39884831284537) rotate(56.98011001795442)" d="M 37.991462989325086 1 L 225.5413169688632 1 L 225.5413169688632 4 L 233.5413169688632 0 L 225.5413169688632 -4 L 225.5413169688632 -1 L 37.991462989325086 -1 Z"/><path class="relationship overlay" fill="rgba(255, 255, 255, 0)" stroke="rgba(255, 255, 255, 0)" stroke-width="10px" transform="translate(106.77653444916632,66.39884831284537) rotate(8.243230205079564)" d="M 37.991462989325086 1 L 226.98060374215325 1 L 226.98060374215325 4 L 234.98060374215325 0 L 226.98060374215325 -4 L 226.98060374215325 -1 L 37.991462989325086 -1 Z"/><path class="relationship overlay" fill="rgba(255, 255, 255, 0)" stroke="rgba(255, 255, 255, 0)" stroke-width="10px" transform="translate(-86.9486967973161,-313.14102018586925) rotate(124.73920274587277)" d="M 33.016409933830275 1 L 204.48841171871874 1 L 204.48841171871874 4 L 212.48841171871874 0 L 204.48841171871874 -4 L 204.48841171871874 -1 L 33.016409933830275 -1 Z"/><path class="relationship overlay" fill="rgba(255, 255, 255, 0)" stroke="rgba(255, 255, 255, 0)" stroke-width="10px" transform="translate(106.77653444916632,-397.90744212466143) rotate(156.3677344584942)" d="M 47.73015710354871 1 L 170.44236030237545 1 L 170.44236030237545 4 L 178.44236030237545 0 L 170.44236030237545 -4 L 170.44236030237545 -1 L 47.73015710354871 -1 Z"/><path class="relationship overlay" fill="rgba(255, 255, 255, 0)" stroke="rgba(255, 255, 255, 0)" stroke-width="10px" transform="translate(397.6228371472047,-428.58416237706535) rotate(173.979046851526)" d="M 28.883864850559835 1 L 236.72946909904903 1 L 236.72946909904903 4 L 244.72946909904903 0 L 236.72946909904903 -4 L 236.72946909904903 -1 L 28.883864850559835 -1 Z"/><path class="relationship overlay" fill="rgba(255, 255, 255, 0)" stroke="rgba(255, 255, 255, 0)" stroke-width="10px" transform="translate(397.6228371472047,-428.58416237706535) rotate(65.02094257214293)" d="M 28.883864850559835 1 L 163.07520963475713 1 L 163.07520963475713 4 L 171.07520963475713 0 L 163.07520963475713 -4 L 163.07520963475713 -1 L 28.883864850559835 -1 Z"/><path class="relationship overlay" fill="rgba(255, 255, 255, 0)" stroke="rgba(255, 255, 255, 0)" stroke-width="10px" transform="translate(106.77653444916632,66.39884831284537) rotate(-152.67333921568752)" d="M 37.991462989325086 1 L 332.7802829163127 1 L 332.7802829163127 4 L 340.7802829163127 0 L 332.7802829163127 -4 L 332.7802829163127 -1 L 37.991462989325086 -1 Z"/><path class="relationship overlay" fill="rgba(255, 255, 255, 0)" stroke="rgba(255, 255, 255, 0)" stroke-width="10px" transform="translate(482.82813457931536,-245.6863032846603) rotate(107.26042637928)" d="M 30.695872463445657 1 L 122.9841524265442 1 L 122.9841524265442 4 L 130.9841524265442 0 L 122.9841524265442 -4 L 122.9841524265442 -1 L 30.695872463445657 -1 Z"/><path class="relationship overlay" fill="rgba(255, 255, 255, 0)" stroke="rgba(255, 255, 255, 0)" stroke-width="10px" transform="translate(106.77653444916632,66.39884831284537) rotate(-24.834228475175244)" d="M 37.991462989325086 1 L 313.3111483238631 1 L 313.3111483238631 4 L 321.3111483238631 0 L 313.3111483238631 -4 L 313.3111483238631 -1 L 37.991462989325086 -1 Z"/><path class="relationship overlay" fill="rgba(255, 255, 255, 0)" stroke="rgba(255, 255, 255, 0)" stroke-width="10px" transform="translate(-86.9486967973161,-313.14102018586925) rotate(23.75251540817254)" d="M 33.016409933830275 1 L 521.9169059999854 1 L 521.9169059999854 4 L 529.9169059999854 0 L 521.9169059999854 -4 L 521.9169059999854 -1 L 33.016409933830275 -1 Z"/><path class="relationship overlay" fill="rgba(255, 255, 255, 0)" stroke="rgba(255, 255, 255, 0)" stroke-width="10px" transform="translate(106.77653444916632,66.39884831284537) rotate(-90)" d="M 37.991462989325086 1 L 132.06359405111618 1 L 132.06359405111618 4 L 140.06359405111618 0 L 132.06359405111618 -4 L 132.06359405111618 -1 L 37.991462989325086 -1 Z"/><path class="relationship overlay" fill="rgba(255, 255, 255, 0)" stroke="rgba(255, 255, 255, 0)" stroke-width="10px" transform="translate(106.77653444916632,-107.41918534498966) rotate(180)" d="M 33.75443960671882 1 L 290.5258506092822 1 L 290.5258506092822 4 L 298.5258506092822 0 L 290.5258506092822 -4 L 290.5258506092822 -1 L 33.75443960671882 -1 Z"/><path class="relationship overlay" fill="rgba(255, 255, 255, 0)" stroke="rgba(255, 255, 255, 0)" stroke-width="10px" transform="translate(106.77653444916632,-107.41918534498966) rotate(-133.27975152682413)" d="M 33.75443960671882 1 L 241.56267377867886 1 L 241.56267377867886 4 L 249.56267377867886 0 L 241.56267377867886 -4 L 241.56267377867886 -1 L 33.75443960671882 -1 Z"/><circle class="node overlay" r="28.75443960671882" stroke="none" fill="rgba(255, 255, 255, 0)" cx="106.77653444916632" cy="-107.41918534498966"/><circle class="node ring" r="33.75443960671882" fill="none" stroke="rgba(255, 255, 255, 0)" stroke-width="10px" cx="106.77653444916632" cy="-107.41918534498966"/><path class="relationship overlay" fill="rgba(255, 255, 255, 0)" stroke="rgba(255, 255, 255, 0)" stroke-width="10px" transform="translate(106.77653444916632,-107.41918534498966) rotate(-90)" d="M 33.75443960671882 1 L 234.75809967612304 1 L 234.75809967612304 4 L 242.75809967612304 0 L 234.75809967612304 -4 L 234.75809967612304 -1 L 33.75443960671882 -1 Z"/><path class="relationship overlay" fill="rgba(255, 255, 255, 0)" stroke="rgba(255, 255, 255, 0)" stroke-width="10px" transform="translate(106.77653444916632,-107.41918534498966) rotate(-47.836080254889026)" d="M 33.75443960671882 1 L 396.40416206125394 1 L 396.40416206125394 4 L 404.40416206125394 0 L 396.40416206125394 -4 L 396.40416206125394 -1 L 33.75443960671882 -1 Z"/><path class="relationship overlay" fill="rgba(255, 255, 255, 0)" stroke="rgba(255, 255, 255, 0)" stroke-width="10px" transform="translate(106.77653444916632,-107.41918534498966) rotate(4.030929898914573)" d="M 33.75443960671882 1 L 280.9060923829569 1 L 280.9060923829569 4 L 288.9060923829569 0 L 280.9060923829569 -4 L 280.9060923829569 -1 L 33.75443960671882 -1 Z"/><path class="relationship overlay" fill="rgba(255, 255, 255, 0)" stroke="rgba(255, 255, 255, 0)" stroke-width="10px" transform="translate(106.77653444916632,-107.41918534498966) rotate(-20.187528141844698)" d="M 33.75443960671882 1 L 361.9693267537915 1 L 361.9693267537915 4 L 369.9693267537915 0 L 361.9693267537915 -4 L 361.9693267537915 -1 L 33.75443960671882 -1 Z"/><circle class="node overlay" r="20.844103371845502" stroke="none" fill="rgba(255, 255, 255, 0)" cx="-157.81230626591818" cy="78.79877477792593"/><circle class="node ring" r="25.844103371845502" fill="none" stroke="rgba(255, 255, 255, 0)" stroke-width="10px" cx="-157.81230626591818" cy="78.79877477792593"/><path class="relationship overlay" fill="rgba(255, 255, 255, 0)" stroke="rgba(255, 255, 255, 0)" stroke-width="10px" transform="translate(106.77653444916632,66.39884831284537) rotate(177.31680292842532)" d="M 37.991462989325086 1 L 231.03513856170383 1 L 231.03513856170383 4 L 239.03513856170383 0 L 231.03513856170383 -4 L 231.03513856170383 -1 L 37.991462989325086 -1 Z"/></g></svg>